<svg id="Artwork" xmlns="http://www.w3.org/2000/svg" width="60" height="60" viewBox="0 0 60 60"><title>Artboard 3</title><path d="M30,60A30,30,0,1,1,60,30,30,30,0,0,1,30,60ZM30,2.88A27.12,27.12,0,1,0,57.12,30,27.15,27.15,0,0,0,30,2.88ZM23.25,47.1a7.84,7.84,0,0,1-5-13.84l4.51-3.78-1.42-1.7a12.84,12.84,0,0,1-2-13.17,1.44,1.44,0,0,1,1.33-.88H23l-.38.62a10,10,0,0,0,.9,11.58l15.93,19-1.1.92a1.44,1.44,0,0,1-2-.18l-3.51-4.18-4.51,3.78A7.84,7.84,0,0,1,23.25,47.1ZM20,35.54a5,5,0,0,0,6.37,7.59A7.84,7.84,0,0,1,20,35.54Zm4.6-3.86a5,5,0,0,0,6.37,7.6ZM44,46.17a1.44,1.44,0,0,1-1.1-.51L25.14,24.54A7.84,7.84,0,1,1,39,19.39v.2l-5.88,4.93a1.44,1.44,0,0,1-2-.18l-.93-1.1.32-.26a2.22,2.22,0,1,0-3.12-.27L37,34.19l2.49-2.09a1.44,1.44,0,0,1,2,.18l.93,1.1-3.59,3L46,44.91l-1.1.93a1.44,1.44,0,0,1-.92.34ZM29,16.18A5.1,5.1,0,0,1,34,20l2-1.66a5,5,0,0,0-8.79-1.83A5.1,5.1,0,0,1,29,16.18Z"/></svg>